# xmcd
#
# Track frame offsets:
#	150
#	11860
#	24285
#	37955
#	50475
#	62710
#	79027
#	97242
#	110004
#	126040
#	141887
#	151510
#	164580
#	176527
#
# Disc length: 2505 seconds
#
# Revision: 1
# Processed by: cddbd v1.4PL0 Copyright (c) Steve Scherf et al.
# Submitted via: audiograbber 1.82.02
#
DISCID=b309c70e
DTITLE=Rattlesnake Annie - Indian Dream
DYEAR=1999
DGENRE=Country
TTITLE0=Indian Dream
TTITLE1=Bugles on the Prairie
TTITLE2=Cherokee Lullaby
TTITLE3=Comanche Tears
TTITLE4=Medicine Woman
TTITLE5=Ride On Red Man
TTITLE6=Letter to Olga
TTITLE7=Smiling Through My Tears
TTITLE8=Indian Love Song
TTITLE9=Cherokee Eyes
TTITLE10=Rain Dance
TTITLE11=Olé Uli
TTITLE12=Tennessee Waltz
TTITLE13=The Woman and the Snake
EXTD=
EXTT0=
EXTT1=
EXTT2=
EXTT3=
EXTT4=
EXTT5=
EXTT6=
EXTT7=
EXTT8=
EXTT9=
EXTT10=
EXTT11=
EXTT12=
EXTT13=
PLAYORDER=
